{"title":"Dylan.Dog.Dead.of.Night.2011.DVDRip.AC3.XViD-EP1C","uid":6470333,"size":1480401521,"categoryP":"video","categoryS":"movies","magnet":"?xt=urn:btih:4f0910324589e883fcf5e05d19f4a5ce9c9c7100&amp;dn=Dylan.Dog.Dead.of.Night.2011.DVDRip.AC3.XViD-EP1C&amp;tr=udp%3A%2F%2Ftracker.openbittorrent.com%3A80&amp;tr=udp%3A%2F%2Fopen.demonii.com%3A1337&amp;tr=udp%3A%2F%2Ftracker.coppersurfer.tk%3A6969&amp;tr=udp%3A%2F%2Fexodus.desync.com%3A6969","seeders":1,"leechers":0,"uploader":"SAFCukO09","files":4,"time":1308122202,"description":"The adventures of supernatural private eye, Dylan Dog, who seeks\nout the monsters of the Louisiana bayou in his signature red shirt,\nblack jacket, and blue jeans.\n\n\n\n\n\nFormat                           : AVI\nFormat/Info                      : Audio Video Interleave\nFile size                        : 1.37 GiB\nDuration                         : 1h 47mn\nOverall bit rate                 : 1 819 Kbps\nWriting application              : VirtualDubMod 1.5.10.2 (build 2540/release)\nWriting library                  : VirtualDubMod build 2540/release\n\nVideo\nID                               : 0\nFormat                           : MPEG-4 Visual\nFormat profile                   : Advanced Simple@L5\nFormat settings, BVOP            : Yes\nFormat settings, QPel            : No\nFormat settings, GMC             : No warppoints\nFormat settings, Matrix          : Default (MPEG)\nMuxing mode                      : Packed bitstream\nCodec ID                         : XVID\nCodec ID/Hint                    : XviD\nDuration                         : 1h 47mn\nBit rate                         : 1 425 Kbps\nWidth                            : 640 pixels\nHeight                           : 272 pixels\nDisplay aspect ratio             : 2.35:1\nFrame rate                       : 23.976 fps\nColor space                      : YUV\nChroma subsampling               : 4:2:0\nBit depth                        : 8 bits\nScan type                        : Progressive\nBits/(Pixel*Frame)               : 0.341\nStream size                      : 1.07 GiB (78%)\nWriting library                  : XviD 58\n\nAudio\nID                               : 1\nFormat                           : AC-3\nFormat/Info                      : Audio Coding 3\nMode extension                   : CM (complete main)\nCodec ID                         : 2000\nDuration                         : 1h 47mn\nBit rate mode                    : Constant\nBit rate                         : 384 Kbps\nChannel(s)                       : 6 channels\nChannel positions                : Front: L C R, Side: L R, LFE\nSampling rate                    : 48.0 KHz\nBit depth                        : 16 bits\nStream size                      : 296 MiB (21%)\nAlignment                        : Split accross interleaves\nInterleave, duration             : 42 ms (1.00 video frame)\nInterleave, preload duration     : 500 ms\n\n\n::NOTES:::::::::\nPresenting DVDRip of Dylan Dog: Dead of Night.\nEnjoy. //EP1C\n\n:: Got something we might be interested in? contact us: &lt;a class=&quot;__cf_email__&quot; href=&quot;/cdn-cgi/l/email-protection&quot; data-cfemail=&quot;fb9e8b9298bb938e8893969a9297d5969e&quot;&gt;[email&amp;#160;protected]&lt;/a&gt;&lt;script cf-hash='f9e31' type=&quot;text/javascript&quot;&gt;\n/* &lt;![CDATA[ */!function(){try{var t=&quot;currentScript&quot;in document?document.currentScript:function(){for(var t=document.getElementsByTagName(&quot;script&quot;),e=t.length;e--;)if(t[e].getAttribute(&quot;cf-hash&quot;))return t[e]}();if(t&amp;&amp;t.previousSibling){var e,r,n,i,c=t.previousSibling,a=c.getAttribute(&quot;data-cfemail&quot;);if(a){for(e=&quot;&quot;,r=parseInt(a.substr(0,2),16),n=2;a.length-n;n+=2)i=parseInt(a.substr(n,2),16)^r,e+=String.fromCharCode(i);e=document.createTextNode(e),c.parentNode.replaceChild(e,c)}}}catch(u){}}();/* ]]&gt; */&lt;/script&gt; ::\n\n::::::::::::::::::::::::::::::::  RESPECT  :::::::::::::::::::::::::::::::::\nIMAGiNE, Rx, FLAWL3SS, ViSiON, HiVE, bobwhite, Wobferry, Vik, OneTwo &amp; All Our Friends!\n\n               ::::::::::::::::  We Are  ::::::::::::::::  \n             :::::: Surpassing the usual or ordinary ::::::\n::::::::::::::::::    Heroic and impressive in quality    ::::::::::::::::::    \n::::::::::::::::::::::::::::::::   EP1C   ::::::::::::::::::::::::::::::::\n","torrent":{"xt":"urn:btih:4f0910324589e883fcf5e05d19f4a5ce9c9c7100","amp;dn":"Dylan.Dog.Dead.of.Night.2011.DVDRip.AC3.XViD-EP1C","amp;tr":["udp%3A%2F%2Ftracker.openbittorrent.com%3A80","udp%3A%2F%2Fopen.demonii.com%3A1337","udp%3A%2F%2Ftracker.coppersurfer.tk%3A6969","udp%3A%2F%2Fexodus.desync.com%3A6969"],"infoHash":"4f0910324589e883fcf5e05d19f4a5ce9c9c7100","infoHashBuffer":{"type":"Buffer","data":[79,9,16,50,69,137,232,131,252,245,224,93,25,244,165,206,156,156,113,0]},"announce":[],"urlList":[]}}